<?xml version="1.0" encoding="utf-8"?>
<!-- Generator: Adobe Illustrator 15.0.0, SVG Export Plug-In . SVG Version: 6.00 Build 0)  -->
<!DOCTYPE svg PUBLIC "-//W3C//DTD SVG 1.1//EN" "http://www.w3.org/Graphics/SVG/1.1/DTD/svg11.dtd">
<svg version="1.1" id="Layer_1" xmlns="http://www.w3.org/2000/svg" xmlns:xlink="http://www.w3.org/1999/xlink" x="0px" y="0px"
	 width="612px" height="612px" viewBox="0 0 612 612" enable-background="new 0 0 612 612" xml:space="preserve">
<path fill="#FFFFFF" d="M272.753,129.5c-7.738,6.642-15.063,13.646-22.154,20.837c-7.094,7.184-13.903,14.599-20.426,22.21
	c-13.019,15.243-24.94,31.265-35.204,48.14c-5.155,8.419-9.847,17.074-14.131,25.873c-2.132,4.406-4.124,8.868-5.993,13.368
	c-1.896,4.488-3.652,9.025-5.26,13.604c-3.19,9.166-5.892,18.463-7.946,27.878c-2.018,9.421-3.495,18.93-4.289,28.49
	c-0.395,4.779-0.612,9.57-0.674,14.361c-0.047,2.407-0.049,4.767-0.005,7.2c0.041,2.362,0.13,4.771,0.262,7.146
	c0.577,9.519,1.651,18.956,3.639,28.172c3.801,18.466,10.895,36.048,21.123,51.931c10.23,15.886,23.663,29.949,39.172,41.93
	c7.763,5.982,16.017,11.495,24.688,16.475c8.671,4.992,17.7,9.529,27.197,13.385c-5.138-0.315-10.24-1.183-15.299-2.244
	c-5.063-1.069-10.072-2.431-15.035-4c-4.948-1.602-9.861-3.392-14.67-5.466c-4.829-2.036-9.559-4.341-14.198-6.856
	c-18.545-10.039-35.497-23.966-48.756-41.22c-3.296-4.316-6.413-8.794-9.232-13.463c-2.804-4.676-5.37-9.503-7.68-14.449
	c-2.337-4.938-4.297-10.042-6.062-15.199c-1.734-5.167-3.29-10.396-4.464-15.703c-2.383-10.603-3.861-21.366-4.284-32.111
	c-0.119-2.692-0.188-5.354-0.205-8.063c-0.015-2.64,0.004-5.354,0.079-8.018c0.174-5.352,0.558-10.695,1.118-16.016
	c1.12-10.642,3.004-21.193,5.705-31.507c2.661-10.321,6.024-20.434,10.103-30.211c2.023-4.895,4.198-9.716,6.512-14.459
	c2.338-4.731,4.829-9.376,7.438-13.94c5.192-9.144,10.989-17.894,17.172-26.301c12.421-16.784,26.525-32.121,41.909-45.854
	c7.687-6.872,15.69-13.351,23.976-19.404C255.197,140.011,263.734,134.307,272.753,129.5z"/>
<path fill="#FFFFFF" d="M339.248,129.5c9.02,4.807,17.557,10.511,25.873,16.515c8.286,6.053,16.289,12.532,23.977,19.404
	c15.384,13.733,29.487,29.071,41.908,45.854c6.184,8.407,11.98,17.157,17.173,26.301c2.608,4.564,5.099,9.209,7.438,13.94
	c2.313,4.743,4.487,9.564,6.512,14.459c4.078,9.777,7.441,19.89,10.103,30.211c2.7,10.314,4.585,20.865,5.705,31.507
	c0.561,5.32,0.943,10.664,1.118,16.016c0.074,2.664,0.093,5.378,0.078,8.018c-0.018,2.71-0.087,5.371-0.205,8.063
	c-0.423,10.745-1.901,21.509-4.284,32.111c-1.175,5.307-2.729,10.536-4.464,15.703c-1.766,5.157-3.725,10.262-6.062,15.199
	c-2.311,4.946-4.876,9.773-7.681,14.449c-2.818,4.669-5.935,9.146-9.231,13.463c-13.26,17.254-30.211,31.181-48.756,41.22
	c-4.639,2.516-9.369,4.82-14.198,6.856c-4.809,2.074-9.722,3.864-14.67,5.466c-4.962,1.569-9.972,2.931-15.034,4
	c-5.059,1.062-10.161,1.929-15.299,2.244c9.498-3.855,18.525-8.393,27.197-13.385c8.671-4.979,16.926-10.492,24.688-16.475
	c15.51-11.98,28.941-26.044,39.172-41.93c10.229-15.883,17.322-33.465,21.124-51.931c1.987-9.216,3.062-18.653,3.638-28.172
	c0.132-2.375,0.222-4.784,0.263-7.146c0.044-2.434,0.042-4.793-0.006-7.2c-0.062-4.791-0.279-9.582-0.674-14.361
	c-0.794-9.561-2.271-19.069-4.288-28.49c-2.054-9.415-4.757-18.712-7.946-27.878c-1.608-4.579-3.364-9.116-5.26-13.604
	c-1.869-4.5-3.86-8.962-5.992-13.368c-4.285-8.798-8.977-17.454-14.132-25.873c-10.265-16.875-22.186-32.896-35.204-48.14
	c-6.523-7.612-13.332-15.027-20.427-22.21C354.312,143.146,346.985,136.142,339.248,129.5z"/>
<g>
	<path fill="#FFFFFF" d="M434.74,217.772c-0.424-4.343-0.594-8.642-0.673-12.924c-0.055-2.144-0.038-4.275-0.055-6.412l0.093-6.386
		l0.208-6.366l0.313-6.347c0.283-4.218,0.547-8.439,0.945-12.637l1.094-11.516l11.378,6.205c10.268,5.6,20.238,11.641,30.037,17.939
		c9.785,6.318,19.39,12.908,28.761,19.845c9.374,6.932,18.522,14.201,27.386,21.896c4.45,3.82,8.776,7.824,13.049,11.91
		c4.253,4.115,8.434,8.337,12.371,12.921c-5.737-1.898-11.232-4.158-16.656-6.526c-5.403-2.397-10.752-4.875-15.978-7.538
		c-10.487-5.27-20.691-10.965-30.668-16.999c-9.979-6.028-19.728-12.403-29.293-19.049c-9.553-6.666-18.933-13.59-28.017-20.955
		l12.472-5.311c-1.067,4.079-2.271,8.135-3.454,12.193l-1.887,6.068l-1.992,6.049l-2.106,6.029c-0.75,2.001-1.467,4.008-2.255,6.003
		C438.267,209.861,436.631,213.839,434.74,217.772z"/>
	<path fill="#FFFFFF" d="M467.248,330.732c1.204-4.3,2.627-8.469,4.126-12.593c0.731-2.072,1.538-4.101,2.303-6.153l2.43-6.079
		l2.528-6.02l2.624-5.962c1.807-3.941,3.596-7.893,5.508-11.771l4.562-9.249l8.406,8.077c8.8,8.455,17.191,17.265,25.353,26.276
		c8.137,9.032,16.028,18.277,23.602,27.8c7.578,9.519,14.849,19.305,21.728,29.432c3.464,5.042,6.761,10.23,9.984,15.482
		c3.195,5.275,6.292,10.638,9.059,16.287c-5.216-3.518-10.101-7.322-14.887-11.213c-4.76-3.914-9.444-7.894-13.962-12.018
		c-9.085-8.206-17.779-16.753-26.165-25.568c-8.391-8.811-16.463-17.898-24.29-27.2c-7.804-9.322-15.376-18.845-22.54-28.724
		l12.968-1.172c-2.492,3.534-5.108,6.995-7.705,10.466l-3.982,5.156l-4.079,5.099l-4.178,5.04c-1.437,1.653-2.833,3.331-4.304,4.965
		C473.431,324.376,470.449,327.619,467.248,330.732z"/>
	<path fill="#FFFFFF" d="M430.75,456.056c3.01-3.751,6.17-7.308,9.378-10.801c3.2-3.505,6.483-6.902,9.785-10.275l5.005-4.992
		l5.07-4.909c1.683-1.646,3.414-3.228,5.127-4.834c1.716-1.604,3.427-3.213,5.176-4.771l5.812-5.18l5.572,7.035
		c8.605,10.863,16.783,22.012,24.671,33.354c7.869,11.355,15.454,22.899,22.688,34.679c7.24,11.775,14.136,23.78,20.583,36.086
		c3.244,6.139,6.322,12.388,9.303,18.703c2.952,6.333,5.791,12.742,8.262,19.397c-5.201-4.832-10.034-9.909-14.754-15.063
		c-4.691-5.171-9.285-10.409-13.713-15.757c-8.896-10.669-17.345-21.637-25.448-32.835c-8.11-11.194-15.868-22.623-23.344-34.241
		c-7.456-11.631-14.622-23.456-21.36-35.566l11.384,1.855c-1.948,1.304-3.935,2.557-5.916,3.816
		c-1.985,1.255-3.95,2.536-5.965,3.752l-6.022,3.679l-6.087,3.595c-4.093,2.352-8.205,4.679-12.399,6.899
		C439.37,451.913,435.135,454.082,430.75,456.056z"/>
</g>
<g>
	<path fill="#FFFFFF" d="M175.149,220.772c-1.89-3.934-3.527-7.912-5.072-11.906c-0.788-1.995-1.505-4.001-2.255-6.003l-2.106-6.029
		l-1.992-6.049l-1.888-6.068c-1.183-4.059-2.386-8.114-3.454-12.193l12.472,5.311c-9.084,7.365-18.464,14.289-28.017,20.955
		c-9.566,6.646-19.313,13.021-29.293,19.049c-9.977,6.033-20.18,11.729-30.667,16.999c-5.226,2.663-10.575,5.141-15.978,7.538
		c-5.423,2.368-10.918,4.628-16.656,6.526c3.938-4.584,8.119-8.807,12.371-12.921c4.272-4.085,8.599-8.09,13.049-11.91
		c8.863-7.695,18.011-14.964,27.386-21.896c9.371-6.937,18.975-13.527,28.76-19.845c9.798-6.299,19.77-12.34,30.037-17.939
		l11.378-6.205l1.094,11.516c0.399,4.198,0.663,8.419,0.946,12.637l0.312,6.347l0.208,6.366l0.094,6.386
		c-0.017,2.137,0,4.269-0.055,6.412C175.743,212.131,175.573,216.429,175.149,220.772z"/>
	<path fill="#FFFFFF" d="M142.641,333.732c-3.201-3.113-6.182-6.356-9.087-9.645c-1.471-1.634-2.867-3.312-4.304-4.965l-4.177-5.04
		l-4.079-5.099l-3.982-5.156c-2.598-3.472-5.213-6.932-7.705-10.466l12.967,1.172c-7.164,9.879-14.737,19.402-22.54,28.724
		c-7.827,9.302-15.9,18.39-24.291,27.2c-8.385,8.815-17.079,17.362-26.165,25.568c-4.518,4.124-9.203,8.104-13.961,12.018
		c-4.787,3.891-9.672,7.695-14.887,11.213c2.767-5.649,5.863-11.012,9.059-16.287c3.223-5.252,6.52-10.44,9.984-15.482
		c6.878-10.127,14.149-19.913,21.728-29.432c7.573-9.522,15.464-18.768,23.601-27.8c8.161-9.011,16.552-17.821,25.352-26.276
		l8.407-8.077l4.561,9.249c1.913,3.878,3.701,7.83,5.508,11.771l2.625,5.962l2.528,6.02l2.429,6.079
		c0.765,2.053,1.572,4.081,2.303,6.153C140.015,325.264,141.438,329.433,142.641,333.732z"/>
	<path fill="#FFFFFF" d="M179.139,459.056c-4.385-1.974-8.62-4.143-12.806-6.373c-4.194-2.221-8.306-4.548-12.399-6.899
		l-6.087-3.595l-6.022-3.679c-2.015-1.216-3.98-2.497-5.965-3.752c-1.982-1.26-3.968-2.513-5.916-3.816l11.383-1.855
		c-6.738,12.11-13.904,23.936-21.36,35.566c-7.476,11.618-15.234,23.047-23.344,34.241c-8.104,11.198-16.552,22.166-25.449,32.835
		c-4.428,5.348-9.021,10.586-13.713,15.757c-4.719,5.153-9.552,10.23-14.753,15.063c2.471-6.655,5.31-13.064,8.262-19.397
		c2.979-6.315,6.058-12.564,9.302-18.703c6.447-12.305,13.343-24.311,20.583-36.086c7.234-11.779,14.819-23.323,22.688-34.679
		c7.888-11.343,16.066-22.491,24.671-33.354l5.572-7.035l5.812,5.18c1.75,1.559,3.46,3.168,5.176,4.771
		c1.712,1.606,3.445,3.188,5.127,4.834l5.07,4.909l5.005,4.992c3.302,3.373,6.585,6.771,9.785,10.275
		C172.97,451.748,176.129,455.305,179.139,459.056z"/>
</g>
<path fill="#FFFFFF" d="M306,120c0.97,7.833,1.798,15.667,2.495,23.5c0.725,7.833,1.33,15.667,1.905,23.5
	c1.122,15.667,1.965,31.333,2.652,47c1.319,31.333,1.935,62.667,1.944,94c0.015,31.333-0.602,62.667-1.92,94
	c-0.685,15.667-1.528,31.333-2.654,47c-0.578,7.833-1.187,15.667-1.914,23.5c-0.699,7.833-1.533,15.667-2.509,23.5
	c-0.976-7.833-1.809-15.667-2.509-23.5c-0.728-7.833-1.336-15.667-1.914-23.5c-1.126-15.667-1.969-31.333-2.654-47
	c-1.319-31.333-1.935-62.667-1.92-94c0.01-31.333,0.625-62.667,1.945-94c0.688-15.667,1.53-31.333,2.652-47
	c0.575-7.833,1.181-15.667,1.905-23.5C304.202,135.667,305.03,127.833,306,120z"/>
<circle fill="#FFFFFF" cx="272.754" cy="99.444" r="24.056"/>
<circle fill="#FFFFFF" cx="339.248" cy="96.556" r="24.056"/>
<path fill="#FFFFFF" d="M210.443,66.5c-0.128,2.581-0.382,5.018-0.634,7.429l-0.741,7.075c-0.491,4.618-0.846,9.084-1.021,13.369
	c-0.322,8.592,0.334,16.417,2.673,23.335c2.3,6.924,6.315,13.212,12.042,19.262c2.853,3.008,6.066,5.962,9.58,8.854
	c3.516,2.924,7.278,5.749,11.377,8.792c-2.531,0.542-5.09,0.641-7.634,0.57c-2.551-0.068-5.085-0.384-7.612-0.864
	c-5.032-1.001-10.01-2.755-14.679-5.38c-4.675-2.602-9.051-6.087-12.721-10.385c-3.674-4.285-6.578-9.402-8.378-14.846
	c-1.809-5.446-2.532-11.161-2.308-16.65c0.209-5.502,1.326-10.782,3.059-15.692c1.732-4.914,4.101-9.469,6.926-13.638
	c1.432-2.079,2.951-4.074,4.627-5.951C206.663,69.904,208.442,68.105,210.443,66.5z"/>
<path fill="#FFFFFF" d="M396.58,60.016c2.001,1.605,3.78,3.404,5.443,5.281c1.676,1.877,3.195,3.873,4.627,5.951
	c2.825,4.169,5.194,8.724,6.926,13.638c1.732,4.911,2.85,10.19,3.059,15.692c0.225,5.489-0.498,11.204-2.308,16.65
	c-1.8,5.444-4.704,10.562-8.378,14.846c-3.67,4.298-8.046,7.784-12.721,10.385c-4.669,2.625-9.647,4.379-14.679,5.38
	c-2.526,0.479-5.062,0.795-7.612,0.864c-2.543,0.071-5.103-0.027-7.634-0.57c4.1-3.043,7.862-5.869,11.378-8.793
	c3.514-2.892,6.728-5.846,9.579-8.854c5.728-6.05,9.743-12.338,12.043-19.262c2.339-6.918,2.995-14.744,2.673-23.335
	c-0.176-4.285-0.53-8.751-1.021-13.369l-0.741-7.075C396.962,65.034,396.709,62.597,396.58,60.016z"/>
</svg>
