<?xml version="1.0" encoding="utf-8"?>
<!-- Generator: Adobe Illustrator 15.0.0, SVG Export Plug-In . SVG Version: 6.00 Build 0)  -->
<!DOCTYPE svg PUBLIC "-//W3C//DTD SVG 1.1//EN" "http://www.w3.org/Graphics/SVG/1.1/DTD/svg11.dtd">
<svg version="1.1" id="Layer_1" xmlns="http://www.w3.org/2000/svg" xmlns:xlink="http://www.w3.org/1999/xlink" x="0px" y="0px"
	 width="612px" height="612px" viewBox="0 0 612 612" enable-background="new 0 0 612 612" xml:space="preserve">
<path fill="#E2E2E2" stroke="#E2E2E2" stroke-width="13" stroke-miterlimit="10" d="M272.753,129.5
	c-7.738,6.642-15.063,13.646-22.154,20.837c-7.094,7.184-13.903,14.599-20.426,22.211c-13.019,15.243-24.939,31.265-35.204,48.139
	c-5.155,8.419-9.846,17.074-14.131,25.873c-2.132,4.406-4.123,8.868-5.992,13.368c-1.896,4.488-3.652,9.025-5.26,13.604
	c-3.19,9.166-5.893,18.463-7.946,27.878c-2.018,9.421-3.495,18.93-4.289,28.49c-0.395,4.779-0.612,9.57-0.674,14.359
	c-0.047,2.407-0.05,4.768-0.005,7.2c0.041,2.362,0.13,4.771,0.262,7.146c0.576,9.52,1.65,18.957,3.638,28.172
	c3.801,18.467,10.895,36.049,21.123,51.932c10.23,15.886,23.662,29.949,39.172,41.931c7.763,5.982,16.018,11.495,24.689,16.476
	c8.671,4.992,17.7,9.527,27.197,13.385c-5.138-0.315-10.24-1.183-15.299-2.244c-5.063-1.067-10.072-2.431-15.035-4
	c-4.948-1.602-9.861-3.392-14.669-5.466c-4.829-2.036-9.559-4.341-14.198-6.857c-18.544-10.039-35.496-23.966-48.756-41.22
	c-3.296-4.313-6.412-8.793-9.231-13.462c-2.804-4.676-5.37-9.503-7.68-14.45c-2.337-4.937-4.297-10.041-6.062-15.198
	c-1.734-5.167-3.289-10.396-4.464-15.702c-2.382-10.604-3.861-21.365-4.284-32.11c-0.119-2.69-0.188-5.354-0.205-8.063
	c-0.015-2.641,0.004-5.354,0.079-8.019c0.174-5.353,0.557-10.694,1.118-16.017c1.12-10.643,3.004-21.192,5.705-31.506
	c2.661-10.322,6.024-20.434,10.103-30.212c2.023-4.895,4.198-9.716,6.512-14.458c2.338-4.732,4.829-9.376,7.438-13.94
	c5.192-9.145,10.989-17.894,17.172-26.301c12.421-16.783,26.524-32.121,41.909-45.854c7.688-6.872,15.69-13.351,23.976-19.404
	C255.196,140.011,263.734,134.307,272.753,129.5z"/>
<path fill="#E2E2E2" stroke="#E2E2E2" stroke-width="13" stroke-miterlimit="10" d="M339.248,129.5
	c9.02,4.807,17.557,10.511,25.873,16.515c8.286,6.053,16.289,12.532,23.977,19.404c15.386,13.733,29.488,29.071,41.909,45.854
	c6.185,8.407,11.979,17.157,17.172,26.301c2.608,4.564,5.102,9.208,7.438,13.94c2.313,4.743,4.486,9.564,6.512,14.458
	c4.079,9.778,7.442,19.89,10.104,30.212c2.698,10.314,4.584,20.865,5.702,31.507c0.563,5.32,0.943,10.664,1.118,16.016
	c0.074,2.664,0.095,5.378,0.078,8.018c-0.018,2.711-0.087,5.371-0.205,8.063c-0.423,10.745-1.899,21.509-4.284,32.11
	c-1.175,5.308-2.729,10.535-4.464,15.702c-1.766,5.157-3.725,10.264-6.063,15.198c-2.312,4.947-4.875,9.774-7.681,14.45
	c-2.818,4.669-5.937,9.146-9.23,13.462c-13.26,17.254-30.211,31.181-48.756,41.22c-4.641,2.519-9.369,4.821-14.198,6.857
	c-4.809,2.074-9.722,3.864-14.67,5.466c-4.962,1.569-9.972,2.931-15.034,4c-5.059,1.063-10.161,1.929-15.299,2.244
	c9.498-3.855,18.526-8.393,27.197-13.385c8.672-4.979,16.926-10.491,24.688-16.476c15.51-11.979,28.942-26.045,39.173-41.931
	c10.229-15.883,17.321-33.465,21.123-51.932c1.987-9.215,3.063-18.652,3.64-28.172c0.132-2.375,0.221-4.783,0.263-7.146
	c0.044-2.436,0.042-4.793-0.006-7.2c-0.063-4.791-0.279-9.582-0.674-14.36c-0.794-9.562-2.271-19.068-4.289-28.489
	c-2.056-9.415-4.758-18.712-7.945-27.878c-1.608-4.579-3.364-9.116-5.261-13.604c-1.869-4.5-3.86-8.962-5.992-13.368
	c-4.284-8.798-8.978-17.453-14.131-25.873c-10.267-16.874-22.188-32.896-35.204-48.139c-6.523-7.612-13.333-15.027-20.427-22.211
	C354.313,143.146,346.985,136.142,339.248,129.5z"/>
<g>
	<path fill="#E2E2E2" stroke="#E2E2E2" stroke-width="13" stroke-miterlimit="10" d="M434.74,217.772
		c-0.424-4.343-0.594-8.642-0.673-12.924c-0.057-2.144-0.038-4.275-0.057-6.412l0.095-6.386l0.206-6.366l0.313-6.347
		c0.283-4.218,0.547-8.439,0.945-12.637l1.094-11.516l11.378,6.205c10.268,5.6,20.238,11.641,30.037,17.939
		c9.785,6.318,19.39,12.908,28.761,19.845c9.374,6.932,18.522,14.201,27.386,21.896c4.45,3.82,8.776,7.824,13.051,11.91
		c4.253,4.115,8.434,8.337,12.369,12.921c-5.735-1.898-11.23-4.158-16.654-6.526c-5.403-2.397-10.752-4.875-15.979-7.538
		c-10.486-5.27-20.689-10.965-30.668-16.999c-9.979-6.028-19.728-12.403-29.293-19.049c-9.553-6.666-16.757-14.134-25.841-21.5
		l7.664-4.103c2.188,3,0.361,7.471-0.822,11.529l-1.887,6.068l-1.992,6.049l-2.104,6.029c-0.75,2.001-1.469,4.008-2.257,6.003
		C438.267,209.861,436.631,213.839,434.74,217.772z"/>
	<path fill="#E2E2E2" stroke="#E2E2E2" stroke-width="13" stroke-miterlimit="10" d="M467.248,330.732
		c1.204-4.301,2.627-8.469,4.126-12.594c0.731-2.072,1.538-4.102,2.303-6.152l2.432-6.079l2.526-6.02l2.624-5.962
		c1.809-3.941,3.598-7.893,5.508-11.771l4.563-9.249l8.406,8.077c8.8,8.455,17.189,17.265,25.353,26.276
		c8.137,9.032,16.028,18.277,23.604,27.801c7.577,9.52,14.849,19.305,21.728,29.433c3.464,5.042,6.761,10.229,9.984,15.481
		c3.193,5.274,6.292,10.637,9.059,16.286c-5.216-3.518-10.101-7.321-14.887-11.213c-4.76-3.914-9.444-7.894-13.962-12.019
		c-9.085-8.205-17.779-16.752-26.165-25.567c-8.393-8.812-16.463-17.897-24.29-27.2c-7.804-9.322-15.376-18.845-22.54-28.724
		l12.968-1.172c0,4.388-5.107,6.995-7.705,10.466l-3.98,5.156l-4.079,5.099l-4.179,5.04c-1.438,1.652-2.833,3.331-4.305,4.965
		C473.431,324.376,470.449,327.619,467.248,330.732z"/>
	<path fill="#E2E2E2" stroke="#E2E2E2" stroke-width="13" stroke-miterlimit="10" d="M430.75,456.056
		c3.01-3.751,6.17-7.308,9.378-10.801c3.2-3.505,6.483-6.902,9.785-10.273l5.005-4.992l5.07-4.909
		c1.683-1.646,3.414-3.229,5.127-4.834c1.716-1.604,3.427-3.213,5.176-4.771l5.813-5.18l5.571,7.035
		c8.605,10.863,16.783,22.012,24.671,33.354c7.869,11.355,15.454,22.899,22.688,34.681c7.24,11.773,14.136,23.778,20.583,36.086
		c3.244,6.139,6.322,12.388,9.303,18.703c2.952,6.333,5.791,12.741,8.262,19.396c-5.199-4.832-10.032-9.909-14.754-15.063
		c-4.689-5.171-9.285-10.409-13.713-15.758c-8.896-10.67-17.345-21.638-25.448-32.836c-8.108-11.192-15.866-22.622-23.344-34.239
		c-7.456-11.632-14.622-23.456-21.36-35.566l11.386,1.855c0.139,3.56-3.937,2.557-5.916,3.814c-1.985,1.255-3.95,2.536-5.965,3.752
		l-6.022,3.68l-6.087,3.596c-4.093,2.352-8.205,4.679-12.399,6.897C439.37,451.913,435.135,454.082,430.75,456.056z"/>
</g>
<g>
	<path fill="#E2E2E2" stroke="#E2E2E2" stroke-width="13" stroke-miterlimit="10" d="M175.149,220.772
		c-1.89-3.934-3.527-7.912-5.072-11.906c-0.788-1.995-1.505-4.001-2.255-6.003l-2.106-6.029l-1.992-6.049l-1.888-6.068
		c-1.183-4.059-9.905-8.336-3.454-12.193c6.451-3.857,12.472,5.311,12.472,5.311c-9.084,7.365-18.464,14.289-28.017,20.955
		c-9.566,6.646-19.313,13.021-29.293,19.049c-9.977,6.033-20.18,11.729-30.667,16.999c-5.226,2.663-10.575,5.141-15.978,7.538
		c-5.423,2.368-10.918,4.628-16.656,6.526c3.938-4.584,8.119-8.807,12.371-12.921c4.272-4.085,8.599-8.09,13.049-11.91
		c8.863-7.695,18.011-14.964,27.386-21.896c9.371-6.937,18.975-13.527,28.76-19.845c9.798-6.299,19.77-12.34,30.037-17.939
		l11.378-6.205l1.094,11.516c0.399,4.198,0.663,8.419,0.946,12.637l0.312,6.347l0.208,6.366l0.094,6.386
		c-0.017,2.137,0,4.269-0.055,6.412C175.743,212.131,175.573,216.429,175.149,220.772z"/>
	<path fill="#E2E2E2" stroke="#E2E2E2" stroke-width="13" stroke-miterlimit="10" d="M142.641,333.732
		c-3.201-3.113-6.182-6.356-9.087-9.646c-1.471-1.634-2.867-3.313-4.304-4.965l-4.177-5.04l-4.079-5.101l-3.982-5.154
		c-2.598-3.472-7.595-5.245-7.705-10.466l12.967,1.172c-1.024,8.799-14.737,19.401-22.54,28.724
		c-7.827,9.303-15.9,18.391-24.291,27.2c-8.385,8.813-17.079,17.36-26.165,25.567c-4.518,4.123-9.203,8.104-13.961,12.019
		c-4.787,3.892-9.672,7.694-14.887,11.213c2.767-5.647,5.863-11.012,9.059-16.287c3.223-5.252,6.52-10.438,9.984-15.481
		c6.878-10.127,14.149-19.912,21.728-29.432c7.573-9.521,15.464-18.769,23.601-27.801c8.161-9.011,16.552-17.821,25.352-26.276
		l8.407-8.077l4.561,9.249c1.913,3.878,3.701,7.83,5.508,11.771l2.625,5.962l2.528,6.021l2.429,6.078
		c0.765,2.054,1.572,4.082,2.303,6.154C140.015,325.264,141.438,329.434,142.641,333.732z"/>
	<path fill="#E2E2E2" stroke="#E2E2E2" stroke-width="13" stroke-miterlimit="10" d="M179.139,459.056
		c-4.385-1.974-8.62-4.143-12.806-6.373c-4.194-2.221-8.306-4.548-12.399-6.897l-6.087-3.595l-6.022-3.681
		c-2.015-1.216-3.98-2.497-5.965-3.752c-1.982-1.26-5.548-0.818-5.916-3.814l11.383-1.855c-6.738,12.11-13.904,23.938-21.36,35.566
		c-7.476,11.618-15.234,23.047-23.344,34.239c-8.104,11.198-16.552,22.166-25.449,32.835c-4.428,5.35-9.021,10.588-13.713,15.759
		c-4.719,5.151-9.552,10.229-14.753,15.063c2.471-6.655,5.31-13.063,8.262-19.396c2.979-6.315,6.058-12.564,9.302-18.703
		c6.447-12.305,13.343-24.313,20.583-36.086c7.234-11.779,14.819-23.323,22.688-34.681c7.888-11.343,16.066-22.489,24.671-33.354
		l5.572-7.035l5.812,5.18c1.75,1.561,3.46,3.168,5.176,4.771c1.712,1.604,3.445,3.188,5.127,4.834l5.07,4.909l5.005,4.992
		c3.302,3.371,6.585,6.771,9.785,10.273C172.97,451.748,176.129,455.305,179.139,459.056z"/>
</g>
<path fill="#E2E2E2" stroke="#E2E2E2" stroke-width="13" stroke-miterlimit="10" d="M306,162.333
	c0.97,6.346,1.798,12.691,2.495,19.038c0.725,6.346,1.33,12.691,1.905,19.037c1.122,12.691,1.965,25.383,2.65,38.075
	c1.319,25.383,1.937,50.766,1.944,76.15c0.015,25.383-0.604,50.766-1.92,76.149c-0.687,12.689-1.528,25.383-2.654,38.074
	c-0.578,6.346-1.187,12.69-1.914,19.035c-0.699,6.348-1.533,12.692-2.509,19.038c-0.976-6.346-1.809-12.69-2.509-19.038
	c-0.728-6.345-1.336-12.689-1.914-19.035c-1.126-12.691-1.969-25.385-2.654-38.074c-1.319-25.384-1.935-50.769-1.92-76.149
	c0.01-25.384,0.625-50.767,1.945-76.15c0.688-12.691,1.53-25.383,2.652-38.075c0.575-6.346,1.181-12.691,1.905-19.037
	C304.202,175.025,305.03,168.68,306,162.333z"/>
<circle fill="#E2E2E2" stroke="#E2E2E2" stroke-width="13" stroke-miterlimit="10" cx="272.754" cy="99.444" r="24.056"/>
<circle fill="#E2E2E2" stroke="#E2E2E2" stroke-width="13" stroke-miterlimit="10" cx="339.248" cy="96.556" r="24.056"/>
<path fill="#E2E2E2" stroke="#E2E2E2" stroke-width="13" stroke-miterlimit="10" d="M210.443,66.5
	c-0.128,2.581-0.382,5.018-0.634,7.429l-0.741,7.075c-0.491,4.618-0.846,9.084-1.021,13.369c-0.322,8.592,0.334,16.417,2.673,23.335
	c2.3,6.924,6.315,13.212,12.042,19.262c2.853,3.008,6.066,5.962,9.58,8.854c3.516,2.924,7.278,5.749,11.377,8.792
	c-2.553,3.566-5.09,0.641-7.634,0.57c-2.551-0.068-5.085-0.384-7.612-0.864c-5.032-1.001-10.01-2.755-14.679-5.38
	c-4.675-2.602-9.051-6.087-12.721-10.385c-3.674-4.285-6.578-9.402-8.378-14.846c-1.809-5.446-2.532-11.161-2.308-16.65
	c0.209-5.502,1.326-10.782,3.059-15.692c1.732-4.914,4.101-9.469,6.926-13.638c1.432-2.079,2.951-4.074,4.627-5.951
	C206.663,69.904,208.442,68.105,210.443,66.5z"/>
<path fill="#E2E2E2" stroke="#E2E2E2" stroke-width="13" stroke-miterlimit="10" d="M396.58,60.016
	c2.001,1.605,3.78,3.404,5.443,5.281c1.676,1.877,3.193,3.873,4.627,5.951c2.823,4.169,5.192,8.724,6.926,13.638
	c1.73,4.911,2.85,10.19,3.059,15.692c0.227,5.489-0.498,11.204-2.308,16.65c-1.8,5.444-4.704,10.562-8.378,14.846
	c-3.67,4.298-8.046,7.784-12.723,10.385c-4.669,2.625-9.646,4.379-14.679,5.38c-2.524,0.479-5.062,0.795-7.612,0.864
	c-2.543,0.071-5.438,2.005-7.634-0.57c4.102-3.043,7.862-5.869,11.378-8.793c3.516-2.892,6.729-5.846,9.579-8.854
	c5.729-6.05,9.743-12.338,12.043-19.262c2.339-6.918,2.995-14.744,2.673-23.335c-0.176-4.285-0.528-8.751-1.021-13.369l-0.741-7.075
	C396.962,65.034,396.709,62.597,396.58,60.016z"/>
</svg>
